<svg width="20" height="23" viewBox="0 0 20 23" fill="none" xmlns="http://www.w3.org/2000/svg">
<path d="M9.55613 16.2806C8.17015 16.2837 6.82719 15.7994 5.76234 14.9122C4.6975 14.025 3.9786 12.7916 3.7315 11.4278C3.48439 10.064 3.72482 8.6568 4.4107 7.45242C5.09659 6.24804 6.18422 5.32326 7.48321 4.83997C8.78221 4.35667 10.2098 4.34565 11.5161 4.80883C12.8224 5.27201 13.9242 6.17988 14.6286 7.37353C15.333 8.56717 15.5951 9.97054 15.3691 11.338C15.1431 12.7054 14.4433 13.9498 13.3923 14.8533L9.59038 11.9238V16.2788C9.576 16.2788 9.56504 16.2788 9.55202 16.2788M19.0606 10.3862C19.0603 8.50615 18.5025 6.66838 17.4578 5.1053C16.4131 3.54223 14.9283 2.32406 13.1912 1.60484C11.4542 0.88562 9.54282 0.697649 7.69893 1.0647C5.85503 1.43175 4.16139 2.33733 2.83217 3.66693C1.50295 4.99654 0.597857 6.69044 0.231339 8.53444C-0.135179 10.3784 0.0533429 12.2897 0.773065 14.0266C1.49279 15.7634 2.71139 17.2479 4.27476 18.2921C5.83813 19.3364 7.67606 19.8937 9.55613 19.8934H9.59449V16.2792L18.2481 22.9377V18.5939L16.29 17.0848C17.1693 16.2049 17.8666 15.1603 18.342 14.0107C18.8174 12.8611 19.0616 11.6292 19.0606 10.3852" fill="#3B3B3C"/>
</svg>
